<?xml version="1.0" encoding="UTF-8" standalone="no" ?>
<!DOCTYPE svg PUBLIC "-//W3C//DTD SVG 1.1//EN" "http://www.w3.org/Graphics/SVG/1.1/DTD/svg11.dtd">
<svg xmlns="http://www.w3.org/2000/svg" xmlns:xlink="http://www.w3.org/1999/xlink" version="1.1" width="1080" height="1080" viewBox="0 0 1080 1080" xml:space="preserve">
<desc>Created with Fabric.js 5.2.4</desc>
<defs>
</defs>
<rect x="0" y="0" width="100%" height="100%" fill="transparent"></rect>
<g transform="matrix(1 0 0 1 540 540)" id="e6f8818a-5966-4416-a140-cbfeba6af33f"  >
<rect style="stroke: none; stroke-width: 1; stroke-dasharray: none; stroke-linecap: butt; stroke-dashoffset: 0; stroke-linejoin: miter; stroke-miterlimit: 4; fill: rgb(255,255,255); fill-rule: nonzero; opacity: 1; visibility: hidden;" vector-effect="non-scaling-stroke"  x="-540" y="-540" rx="0" ry="0" width="1080" height="1080" />
</g>
<g transform="matrix(1 0 0 1 540 540)" id="1184adc6-4f5a-42ff-9c61-342276cc53e7"  >
</g>
<g transform="matrix(1 0 0 1 540 540)"  >
<g style="" vector-effect="non-scaling-stroke"   >
		<g transform="matrix(1 0 0 1 0 0)"  >
<path style="stroke: none; stroke-width: 1; stroke-dasharray: none; stroke-linecap: butt; stroke-dashoffset: 0; stroke-linejoin: miter; stroke-miterlimit: 4; fill: rgb(2,90,221); fill-rule: nonzero; opacity: 1;" vector-effect="non-scaling-stroke"  transform=" translate(-75, -75)" d="M 75 115.7 C 52.522010681886705 115.7 34.3 97.47798931811329 34.3 75 C 34.3 52.522010681886705 52.522010681886705 34.3 75 34.3 C 97.47798931811329 34.3 115.69999999999999 52.5220106818867 115.7 75 C 115.67190085753755 97.46633997871704 97.46633997871704 115.67190085753755 75 115.7 z M 75 36.3 C 53.62658018154829 36.3 36.3 53.62658018154829 36.3 75 C 36.3 96.37341981845171 53.62658018154829 113.7 75 113.7 C 96.37341981845171 113.7 113.7 96.37341981845171 113.7 75 C 113.67300345853772 53.63777250776752 96.36222749223246 36.32699654146226 74.99999999999999 36.29999999999999 z" stroke-linecap="round" />
</g>
		<g transform="matrix(1 0 0 1 0 0)"  >
<path style="stroke: none; stroke-width: 1; stroke-dasharray: none; stroke-linecap: butt; stroke-dashoffset: 0; stroke-linejoin: miter; stroke-miterlimit: 4; fill: rgb(2,90,221); fill-rule: nonzero; opacity: 1;" vector-effect="non-scaling-stroke"  transform=" translate(-75, -75)" d="M 75 108.841 C 56.31013178097612 108.84099999999998 41.159 93.68986821902386 41.159000000000006 74.99999999999999 C 41.15900000000001 56.31013178097611 56.31013178097613 41.159000000000006 75.00000000000001 41.159000000000006 C 93.6898682190239 41.159000000000006 108.84100000000001 56.31013178097611 108.84100000000001 75 C 108.82005818121398 93.68118695769932 93.68118695769932 108.82005818121398 75 108.84100000000001 z M 75 43.15899999999999 C 57.414701280637715 43.15899999999999 43.159000000000006 57.4147012806377 43.159000000000006 75 C 43.159000000000006 92.58529871936229 57.414701280637715 106.841 75 106.841 C 92.5852987193623 106.841 106.84100000000001 92.5852987193623 106.84100000000001 75 C 106.8211606745783 57.4229255569749 92.57707444302508 43.1788393254217 75 43.159 z" stroke-linecap="round" />
</g>
		<g transform="matrix(1 0 0 1 0 0)"  >
<path style="stroke: none; stroke-width: 1; stroke-dasharray: none; stroke-linecap: butt; stroke-dashoffset: 0; stroke-linejoin: miter; stroke-miterlimit: 4; fill: rgb(2,90,221); fill-rule: nonzero; opacity: 1;" vector-effect="non-scaling-stroke"  transform=" translate(-75, -75)" d="M 75 96.973 C 68.6588749523367 96.96583581414791 63.520164185852096 91.8271250476633 63.513 85.486 C 63.513 84.93371525016921 63.96071525016921 84.486 64.513 84.486 C 65.0652847498308 84.486 65.513 84.93371525016921 65.513 85.486 C 65.51259552816344 89.32322429218009 67.82377241069749 92.7828356461104 71.36878931397116 94.25155807992772 C 74.91380621724484 95.72028051374505 78.99449805990548 94.9088599151365 81.70796839907067 92.19567559582366 C 84.42143873823585 89.48249127651081 85.23328949012159 85.40188499076528 83.76494075517155 81.85671328481577 C 82.29659202022152 78.31154157886625 78.83722431349725 76.00000002131716 75 76 C 70.35376021559306 76.00040446048408 66.16481302673007 73.20183500858714 64.38658719700766 68.9093465465989 C 62.60836136728524 64.61685808461064 63.59107677701276 59.67585211905485 66.8764644480338 56.3904644480338 C 70.16185211905486 53.105076777012755 75.10285808461065 52.12236136728524 79.39534654659889 53.90058719700765 C 83.68783500858714 55.67881302673007 86.48640446048408 59.86776021559305 86.486 64.514 C 86.486 65.06628474983079 86.0382847498308 65.514 85.486 65.514 C 84.93371525016921 65.514 84.486 65.06628474983079 84.486 64.514 C 84.48640446011294 60.676684710466716 82.17511936639745 57.21701009996207 78.62997968592761 55.74834627156835 C 75.08484000545778 54.27968244317463 71.00406969743347 55.09128634172929 68.29067801958138 57.80467801958137 C 65.57728634172929 60.518069697433454 64.76568244317463 64.59884000545776 66.23434627156836 68.1439796859276 C 67.70301009996207 71.68911936639743 71.16268471046672 74.00040446011295 75 74 C 81.30200538561866 74.05880166690704 86.37982374330096 79.1842202921167 86.37982374330096 85.48649999999999 C 86.37982374330096 91.7887797078833 81.30200538561866 96.91419833309295 75 96.973 z" stroke-linecap="round" />
</g>
		<g transform="matrix(1 0 0 1 0 0)"  >
<path style="stroke: none; stroke-width: 1; stroke-dasharray: none; stroke-linecap: butt; stroke-dashoffset: 0; stroke-linejoin: miter; stroke-miterlimit: 4; fill: rgb(2,90,221); fill-rule: nonzero; opacity: 1;" vector-effect="non-scaling-stroke"  transform=" translate(-75, -75)" d="M 75 99.49 C 74.44771525016921 99.49 74 99.04228474983078 74 98.49 L 74 51.51 C 74 50.9577152501692 74.44771525016921 50.51 75 50.51 C 75.55228474983079 50.51 76 50.9577152501692 76 51.51 L 76 98.49 C 76 99.04228474983078 75.55228474983079 99.49 75 99.49 z" stroke-linecap="round" />
</g>
		<g transform="matrix(1 0 0 1 0 -55.19)"  >
<path style="stroke: none; stroke-width: 1; stroke-dasharray: none; stroke-linecap: butt; stroke-dashoffset: 0; stroke-linejoin: miter; stroke-miterlimit: 4; fill: rgb(2,90,221); fill-rule: nonzero; opacity: 1;" vector-effect="non-scaling-stroke"  transform=" translate(-75, -19.81)" d="M 75 29.63 C 74.44771525016921 29.63 74 29.182284749830792 74 28.63 L 74 11 C 74 10.447715250169207 74.44771525016921 10 75 10 C 75.55228474983079 10 76 10.447715250169207 76 11 L 76 28.63 C 76 29.182284749830792 75.55228474983079 29.63 75 29.63 z" stroke-linecap="round" />
</g>
		<g transform="matrix(1 0 0 1 0 -61.03)"  >
<path style="stroke: none; stroke-width: 1; stroke-dasharray: none; stroke-linecap: butt; stroke-dashoffset: 0; stroke-linejoin: miter; stroke-miterlimit: 4; fill: rgb(2,90,221); fill-rule: nonzero; opacity: 1;" vector-effect="non-scaling-stroke"  transform=" translate(-75, -13.97)" d="M 79.94 17.926 C 79.64256776323452 17.92648302855147 79.3603564903315 17.794540095765644 79.17 17.566 L 75 12.565999999999999 L 70.829 17.566 C 70.47526161773337 17.990430830244964 69.84443083024496 18.047738382266626 69.41999999999999 17.694000000000003 C 68.99556916975503 17.34026161773338 68.93826161773336 16.709430830244965 69.29199999999999 16.285 L 74.231 10.36 C 74.42708810477693 10.142166223144638 74.70640940108206 10.01778302234154 74.9995 10.01778302234154 C 75.29259059891794 10.01778302234154 75.57191189522307 10.142166223144638 75.768 10.36 L 80.708 16.285 C 80.95689569670063 16.583030527821414 81.01076691731532 16.998198957859337 80.84617648776532 17.349882414749402 C 80.6815860582153 17.701565871639463 80.32829271375591 17.926178307785307 79.94 17.926000000000002 z" stroke-linecap="round" />
</g>
		<g transform="matrix(1 0 0 1 -32.44 -44.66)"  >
<path style="stroke: none; stroke-width: 1; stroke-dasharray: none; stroke-linecap: butt; stroke-dashoffset: 0; stroke-linejoin: miter; stroke-miterlimit: 4; fill: rgb(2,90,221); fill-rule: nonzero; opacity: 1;" vector-effect="non-scaling-stroke"  transform=" translate(-42.56, -30.35)" d="M 47.745 38.486 C 47.424407264371254 38.486132406878575 47.12318792452164 38.332547731128095 46.934999999999995 38.073 L 36.57299999999999 23.811 C 36.35244666186647 23.522651583282396 36.30548531093192 23.13742218135232 36.45030671790268 22.804532793614595 C 36.59512812487343 22.471643405876872 36.90898343954888 22.243384995203826 37.27029885813899 22.20817487344273 C 37.63161427672912 22.17296475168163 37.98363361584492 22.3363337985708 38.18999999999999 22.635 L 48.55199999999999 36.900000000000006 C 48.77294309465079 37.2039310087962 48.804861076980465 37.60606511754227 48.634629231574515 37.941044263149024 C 48.464397386168564 38.276023408755776 48.120751807572766 38.48730122426076 47.74499999999999 38.48800000000001 z" stroke-linecap="round" />
</g>
		<g transform="matrix(1 0 0 1 -34.13 -47.92)"  >
<path style="stroke: none; stroke-width: 1; stroke-dasharray: none; stroke-linecap: butt; stroke-dashoffset: 0; stroke-linejoin: miter; stroke-miterlimit: 4; fill: rgb(2,90,221); fill-rule: nonzero; opacity: 1;" vector-effect="non-scaling-stroke"  transform=" translate(-40.87, -27.07)" d="M 36.87 31.92 L 36.802 31.92 C 36.25117166682707 31.88312000934887 35.834434813764005 31.40684932013394 35.871 30.856 L 36.383 23.156000000000002 C 36.40356749555846 22.860433285212473 36.55414169393859 22.58920351281686 36.794122017154834 22.4154446303594 C 37.034102340371085 22.24168574790194 37.338779188582336 22.18328885743976 37.626000000000005 22.256000000000004 L 45.10600000000001 24.147000000000006 C 45.454502325139224 24.232593107549047 45.73042110115468 24.49836282843688 45.82900860731221 24.843414352585054 C 45.92759611346974 25.18846587673323 45.83373479932539 25.55988850556158 45.58305746545807 25.816678156779286 C 45.33238013159075 26.07346780799699 44.963326002072506 26.17624798597017 44.61600000000001 26.086000000000006 L 38.29900000000001 24.486000000000004 L 37.867000000000004 30.986000000000004 C 37.83226116840898 31.511200985341425 37.39634843526078 31.919568580888484 36.870000000000005 31.920000000000005 z" stroke-linecap="round" />
</g>
		<g transform="matrix(1 0 0 1 -52.5 -17.06)"  >
<path style="stroke: none; stroke-width: 1; stroke-dasharray: none; stroke-linecap: butt; stroke-dashoffset: 0; stroke-linejoin: miter; stroke-miterlimit: 4; fill: rgb(2,90,221); fill-rule: nonzero; opacity: 1;" vector-effect="non-scaling-stroke"  transform=" translate(-22.49, -57.94)" d="M 30.9 61.671 C 30.795076232946453 61.670864459881756 30.69081823688936 61.65433163850054 30.590999999999998 61.622 L 13.823999999999998 56.174 C 13.468157451629468 56.07715221368306 13.19450081830084 55.792314438308686 13.111972969546496 55.43288076275044 C 13.029445120792154 55.07344708719221 13.151442940830837 54.697764983345365 13.4293990244802 54.45539372162559 C 13.707355108129562 54.213022459905815 14.096148377756398 54.143306574070145 14.440999999999999 54.274 L 31.208 59.721000000000004 C 31.67736516521238 59.87190851378578 31.966702677444903 60.34239171281102 31.889616540800844 60.82935656306735 C 31.81253040415678 61.31632141332368 31.392026340163632 61.67443727266975 30.898999999999997 61.673 z" stroke-linecap="round" />
</g>
		<g transform="matrix(1 0 0 1 -57.29 -17.94)"  >
<path style="stroke: none; stroke-width: 1; stroke-dasharray: none; stroke-linecap: butt; stroke-dashoffset: 0; stroke-linejoin: miter; stroke-miterlimit: 4; fill: rgb(2,90,221); fill-rule: nonzero; opacity: 1;" vector-effect="non-scaling-stroke"  transform=" translate(-17.71, -57.05)" d="M 18.243 62.752 C 17.89860331895101 62.752432270421615 17.578218907357808 62.57561634515555 17.395 62.284 L 13.286 55.756 C 13.127603922284901 55.504770240234976 13.08907383695086 55.19613247877804 13.180844476286982 54.913672110968754 C 13.272615115623106 54.63121174315946 13.485190176317811 54.40415739098 13.761 54.294 L 20.923 51.428 C 21.435796390217888 51.222826215437856 22.017826215437857 51.472203609782106 22.222999999999995 51.985 C 22.428173784562137 52.497796390217886 22.17879639021789 53.079826215437855 21.665999999999997 53.285 L 15.617999999999997 55.705999999999996 L 19.087999999999997 61.218999999999994 C 19.28199098101175 61.52695207919874 19.293348869675665 61.91598547532443 19.11765440735572 62.23473057678772 C 18.941959945035773 62.553475678251004 18.6069599142146 62.75159423943547 18.243 62.751999999999995 z" stroke-linecap="round" />
</g>
		<g transform="matrix(1 0 0 1 -52.47 17.04)"  >
<path style="stroke: none; stroke-width: 1; stroke-dasharray: none; stroke-linecap: butt; stroke-dashoffset: 0; stroke-linejoin: miter; stroke-miterlimit: 4; fill: rgb(2,90,221); fill-rule: nonzero; opacity: 1;" vector-effect="non-scaling-stroke"  transform=" translate(-22.54, -92.05)" d="M 14.132 95.777 C 13.640366964732761 95.77641559221286 13.222085262232577 95.41855654724671 13.145421636457513 94.93293728137934 C 13.068758010682448 94.44731801551197 13.356456305791184 93.97800748963165 13.824 93.82600000000001 L 30.589999999999996 88.37800000000001 C 30.93447883338705 88.24856590203986 31.322211580619832 88.31878632635852 31.599417337170152 88.5608107484771 C 31.87662309372047 88.80283517059567 31.998504582566696 89.17755172206465 31.91672168868428 89.53634192627135 C 31.834938794801865 89.89513213047803 31.562707877758786 90.18001442033484 31.207999999999995 90.27800000000002 L 14.440999999999995 95.72800000000002 C 14.341181763110633 95.76033163850056 14.236923767053542 95.77686445988178 14.131999999999996 95.77700000000003 z" stroke-linecap="round" />
</g>
		<g transform="matrix(1 0 0 1 -57.29 17.95)"  >
<path style="stroke: none; stroke-width: 1; stroke-dasharray: none; stroke-linecap: butt; stroke-dashoffset: 0; stroke-linejoin: miter; stroke-miterlimit: 4; fill: rgb(2,90,221); fill-rule: nonzero; opacity: 1;" vector-effect="non-scaling-stroke"  transform=" translate(-17.72, -92.95)" d="M 21.294 98.644 C 21.16685008990784 98.6441210230482 21.04087453251007 98.61967293643731 20.923000000000002 98.572 L 13.761000000000003 95.706 C 13.485190176317815 95.59584260902001 13.27261511562311 95.36878825684053 13.180844476286987 95.08632788903125 C 13.089073836950863 94.80386752122196 13.127603922284905 94.49522975976502 13.286000000000003 94.244 L 17.400000000000002 87.716 C 17.694091629284898 87.24849095926822 18.311490959268234 87.1079083707151 18.779 87.40199999999999 C 19.24650904073177 87.6960916292849 19.3870916292849 88.31349095926822 19.093000000000004 88.78099999999999 L 15.623000000000003 94.294 L 21.671000000000003 96.715 C 22.116917935710852 96.89263485720475 22.37372403035185 97.36204611618126 22.282833215321645 97.83335897153948 C 22.191942400291442 98.3046718268977 21.778995931420802 98.64492396009591 21.299000000000003 98.644 z" stroke-linecap="round" />
</g>
		<g transform="matrix(1 0 0 1 -32.43 44.64)"  >
<path style="stroke: none; stroke-width: 1; stroke-dasharray: none; stroke-linecap: butt; stroke-dashoffset: 0; stroke-linejoin: miter; stroke-miterlimit: 4; fill: rgb(2,90,221); fill-rule: nonzero; opacity: 1;" vector-effect="non-scaling-stroke"  transform=" translate(-42.57, -119.63)" d="M 37.38 127.777 C 37.00424819242723 127.77630122426075 36.660602613831436 127.56502340875576 36.490370768425485 127.23004426314903 C 36.320138923019535 126.89506511754227 36.3520569053492 126.4929310087962 36.573 126.18900000000001 L 46.935 111.927 C 47.13957282568533 111.6241957365924 47.49302648027781 111.45709294883865 47.85686621718275 111.49116799536324 C 48.22070595408768 111.52524304188782 48.53698564079148 111.75506903562743 48.68177651182813 112.09059260650011 C 48.82656738286478 112.42611617737279 48.776809639787814 112.81390090453947 48.552 113.102 L 38.19 127.36500000000001 C 38.001597287045165 127.62416981277761 37.7004129226611 127.77736482281 37.379999999999995 127.77700000000002 z" stroke-linecap="round" />
</g>
		<g transform="matrix(1 0 0 1 -34.12 47.93)"  >
<path style="stroke: none; stroke-width: 1; stroke-dasharray: none; stroke-linecap: butt; stroke-dashoffset: 0; stroke-linejoin: miter; stroke-miterlimit: 4; fill: rgb(2,90,221); fill-rule: nonzero; opacity: 1;" vector-effect="non-scaling-stroke"  transform=" translate(-40.88, -122.93)" d="M 37.381 127.777 C 36.85385638616943 127.77818441828673 36.41631738066771 127.36996052615362 36.381 126.844 L 35.869 119.14399999999999 C 35.83227306413625 118.5917152501692 36.250215250169205 118.11422693586374 36.8025 118.07749999999999 C 37.3547847498308 118.04077306413625 37.83227306413625 118.4587152501692 37.869 119.011 L 38.301 125.511 L 44.618 123.911 C 44.96870342073459 123.8103448050462 45.346391233308125 123.90868489891422 45.60347401774867 124.16759183109339 C 45.8605568021892 124.42649876327256 45.95622403687291 124.80487243840936 45.853091746973924 125.15485542137614 C 45.74995945707493 125.5048384043429 45.46439934385747 125.77087276221381 45.108000000000004 125.849 L 37.628 127.741 C 37.54744891923116 127.76305696430408 37.464495830818294 127.77514729297964 37.381 127.777 z" stroke-linecap="round" />
</g>
		<g transform="matrix(1 0 0 1 0 55.18)"  >
<path style="stroke: none; stroke-width: 1; stroke-dasharray: none; stroke-linecap: butt; stroke-dashoffset: 0; stroke-linejoin: miter; stroke-miterlimit: 4; fill: rgb(2,90,221); fill-rule: nonzero; opacity: 1;" vector-effect="non-scaling-stroke"  transform=" translate(-75, -130.19)" d="M 75 140 C 74.44771525016921 140 74 139.5522847498308 74 139 L 74 121.37 C 74 120.81771525016921 74.44771525016921 120.37 75 120.37 C 75.55228474983079 120.37 76 120.81771525016921 76 121.37 L 76 139 C 76 139.5522847498308 75.55228474983079 140 75 140 z" stroke-linecap="round" />
</g>
		<g transform="matrix(1 0 0 1 0 61.03)"  >
<path style="stroke: none; stroke-width: 1; stroke-dasharray: none; stroke-linecap: butt; stroke-dashoffset: 0; stroke-linejoin: miter; stroke-miterlimit: 4; fill: rgb(2,90,221); fill-rule: nonzero; opacity: 1;" vector-effect="non-scaling-stroke"  transform=" translate(-75, -136.04)" d="M 75 140 C 74.7029175146542 140.00018565545636 74.42113276973744 139.8682708203848 74.231 139.64 L 69.292 133.714 C 68.93853776010829 133.28956916975503 68.99606916975503 132.6589622398917 69.4205 132.3055 C 69.84493083024498 131.95203776010828 70.4755377601083 132.00956916975503 70.82900000000001 132.434 L 75.00000000000001 137.434 L 79.17000000000002 132.434 C 79.52346223989173 132.00929302738012 80.15429302738013 131.9515377601083 80.57900000000001 132.305 C 81.0037069726199 132.65846223989172 81.06146223989172 133.28929302738013 80.70800000000001 133.714 L 75.76800000000001 139.64 C 75.57809111806256 139.8680019483268 75.29673263976125 139.99988873503054 75.00000000000001 140 z" stroke-linecap="round" />
</g>
		<g transform="matrix(1 0 0 1 32.43 44.63)"  >
<path style="stroke: none; stroke-width: 1; stroke-dasharray: none; stroke-linecap: butt; stroke-dashoffset: 0; stroke-linejoin: miter; stroke-miterlimit: 4; fill: rgb(2,90,221); fill-rule: nonzero; opacity: 1;" vector-effect="non-scaling-stroke"  transform=" translate(-107.43, -119.63)" d="M 112.619 127.777 C 112.2985870773389 127.77736482280999 111.99740271295482 127.6241698127776 111.809 127.365 L 101.447 113.1 C 101.22219036021222 112.81190090453946 101.17243261713529 112.4241161773728 101.31722348817193 112.08859260650014 C 101.4620143592086 111.75306903562749 101.77829404591238 111.52324304188788 102.14213378281728 111.48916799536329 C 102.5059735197222 111.45509294883871 102.85942717431466 111.62219573659242 103.06400000000001 111.925 L 113.426 126.187 C 113.6469430946508 126.4909310087962 113.67886107698047 126.89306511754226 113.50862923157452 127.22804426314902 C 113.33839738616857 127.56302340875575 112.99475180757277 127.77430122426074 112.619 127.77499999999999 z" stroke-linecap="round" />
</g>
		<g transform="matrix(1 0 0 1 34.12 47.93)"  >
<path style="stroke: none; stroke-width: 1; stroke-dasharray: none; stroke-linecap: butt; stroke-dashoffset: 0; stroke-linejoin: miter; stroke-miterlimit: 4; fill: rgb(2,90,221); fill-rule: nonzero; opacity: 1;" vector-effect="non-scaling-stroke"  transform=" translate(-109.12, -122.93)" d="M 112.618 127.777 C 112.53542063017342 127.77694470614833 112.45315294313689 127.76687111181732 112.37299999999999 127.747 L 104.89399999999999 125.855 C 104.53760065614252 125.77687276221383 104.25204054292504 125.51083840434292 104.14890825302605 125.16085542137614 C 104.04577596312706 124.81087243840936 104.14144319781076 124.43249876327256 104.3985259822513 124.17359183109338 C 104.65560876669184 123.9146848989142 105.0332965792654 123.81634480504619 105.38399999999999 123.917 L 111.69999999999999 125.517 L 112.13199999999999 119.017 C 112.17413172185746 118.46837443972316 112.64766598984167 118.05442100921303 113.19699999999999 118.086 C 113.74782833317292 118.12287999065113 114.16456518623599 118.59915067986606 114.12799999999999 119.15 L 113.61599999999999 126.85000000000001 C 113.58068261933228 127.37596052615363 113.14314361383056 127.78418441828674 112.61599999999999 127.78300000000002 z" stroke-linecap="round" />
</g>
		<g transform="matrix(1 0 0 1 52.46 17.05)"  >
<path style="stroke: none; stroke-width: 1; stroke-dasharray: none; stroke-linecap: butt; stroke-dashoffset: 0; stroke-linejoin: miter; stroke-miterlimit: 4; fill: rgb(2,90,221); fill-rule: nonzero; opacity: 1;" vector-effect="non-scaling-stroke"  transform=" translate(-127.46, -92.05)" d="M 135.868 95.777 C 135.76307623294645 95.77686445988175 135.65881823688935 95.76033163850053 135.559 95.728 L 118.792 90.28 C 118.4361574516295 90.18315221368303 118.1625008183009 89.89831443830866 118.07997296954657 89.53888076275044 C 117.99744512079225 89.17944708719222 118.11944294083092 88.8037649833454 118.39739902448026 88.56139372162563 C 118.67535510812961 88.31902245990587 119.06414837775641 88.24930657407018 119.409 88.38 L 136.17600000000002 93.828 C 136.64354369420883 93.98000748963165 136.93124198931756 94.44931801551196 136.85457836354252 94.93493728137933 C 136.77791473776745 95.4205565472467 136.35963303526725 95.77841559221285 135.86800000000002 95.779 z" stroke-linecap="round" />
</g>
		<g transform="matrix(1 0 0 1 57.28 17.95)"  >
<path style="stroke: none; stroke-width: 1; stroke-dasharray: none; stroke-linecap: butt; stroke-dashoffset: 0; stroke-linejoin: miter; stroke-miterlimit: 4; fill: rgb(2,90,221); fill-rule: nonzero; opacity: 1;" vector-effect="non-scaling-stroke"  transform=" translate(-132.29, -92.95)" d="M 128.705 98.644 C 128.2250040685792 98.64492396009592 127.81205759970857 98.30467182689772 127.72116678467836 97.83335897153948 C 127.63027596964815 97.36204611618126 127.88708206428915 96.89263485720475 128.333 96.715 L 134.382 94.294 L 130.911 88.78099999999999 C 130.6169083707151 88.31349095926822 130.75749095926824 87.69609162928488 131.22500000000002 87.40199999999999 C 131.69250904073178 87.1079083707151 132.3099083707151 87.24849095926822 132.604 87.716 L 136.71400000000003 94.244 C 136.87239607771514 94.49522975976502 136.91092616304917 94.80386752122196 136.81915552371305 95.08632788903125 C 136.72738488437693 95.36878825684053 136.5148098236822 95.59584260902001 136.23900000000003 95.706 L 129.07600000000002 98.572 C 128.9579854525304 98.61919861603485 128.83210234046723 98.64362876177218 128.705 98.644 z" stroke-linecap="round" />
</g>
		<g transform="matrix(1 0 0 1 52.51 -17.06)"  >
<path style="stroke: none; stroke-width: 1; stroke-dasharray: none; stroke-linecap: butt; stroke-dashoffset: 0; stroke-linejoin: miter; stroke-miterlimit: 4; fill: rgb(2,90,221); fill-rule: nonzero; opacity: 1;" vector-effect="non-scaling-stroke"  transform=" translate(-127.51, -57.94)" d="M 119.1 61.671 C 118.60716484377761 61.67194015155787 118.18712574491241 61.313673736708196 118.11031299269429 60.82686044992324 C 118.03350024047616 60.34004716313829 118.32281918085138 59.86985335275272 118.79199999999999 59.719 L 135.559 54.272 C 135.9038516222436 54.14130657407013 136.29264489187045 54.2110224599058 136.57060097551982 54.453393721625574 C 136.8485570591692 54.695764983345356 136.97055487920787 55.0714470871922 136.88802703045351 55.43088076275045 C 136.80549918169916 55.7903144383087 136.53184254837052 56.07515221368306 136.176 56.172 L 119.40899999999999 61.62 C 119.3092900051052 61.653010659552756 119.20502940696164 61.67021871944053 119.1 61.671 z" stroke-linecap="round" />
</g>
		<g transform="matrix(1 0 0 1 57.28 -17.94)"  >
<path style="stroke: none; stroke-width: 1; stroke-dasharray: none; stroke-linecap: butt; stroke-dashoffset: 0; stroke-linejoin: miter; stroke-miterlimit: 4; fill: rgb(2,90,221); fill-rule: nonzero; opacity: 1;" vector-effect="non-scaling-stroke"  transform=" translate(-132.29, -57.05)" d="M 131.756 62.752 C 131.3920400857854 62.75159423943548 131.05704005496423 62.55347567825101 130.8813455926443 62.234730576787726 C 130.70565113032433 61.91598547532444 130.71700901898825 61.52695207919875 130.911 61.219 L 134.382 55.706 L 128.333 53.285000000000004 C 127.82020360978211 53.07982621543786 127.57082621543786 52.4977963902179 127.776 51.98500000000001 C 127.98117378456213 51.47220360978211 128.5632036097821 51.22282621543786 129.076 51.428000000000004 L 136.239 54.294000000000004 C 136.51480982368219 54.404157390980004 136.7273848843769 54.63121174315947 136.81915552371302 54.91367211096876 C 136.91092616304914 55.19613247877805 136.8723960777151 55.50477024023498 136.714 55.75600000000001 L 132.60399999999998 62.284000000000006 C 132.42078109264216 62.57561634515557 132.10039668104895 62.75243227042163 131.75599999999997 62.75200000000001 z" stroke-linecap="round" />
</g>
		<g transform="matrix(1 0 0 1 32.45 -44.66)"  >
<path style="stroke: none; stroke-width: 1; stroke-dasharray: none; stroke-linecap: butt; stroke-dashoffset: 0; stroke-linejoin: miter; stroke-miterlimit: 4; fill: rgb(2,90,221); fill-rule: nonzero; opacity: 1;" vector-effect="non-scaling-stroke"  transform=" translate(-107.44, -30.34)" d="M 102.254 38.486 C 101.87824819242722 38.48530122426075 101.53460261383144 38.27402340875577 101.36437076842549 37.939044263149015 C 101.19413892301954 37.60406511754226 101.2260569053492 37.20193100879619 101.447 36.897999999999996 L 111.809 22.634999999999998 C 112.01536638415509 22.336333798570845 112.36738572327087 22.172964751681715 112.72870114186097 22.208174873442825 C 113.09001656045106 22.243384995203932 113.40387187512647 22.471643405876957 113.54869328209723 22.804532793614648 C 113.69351468906798 23.137422181352342 113.64655333813347 23.52265158328239 113.426 23.810999999999996 L 103.06400000000001 38.07299999999999 C 102.87581207547836 38.33254773112809 102.57459273562876 38.48613240687857 102.254 38.48599999999999 z" stroke-linecap="round" />
</g>
		<g transform="matrix(1 0 0 1 34.13 -47.92)"  >
<path style="stroke: none; stroke-width: 1; stroke-dasharray: none; stroke-linecap: butt; stroke-dashoffset: 0; stroke-linejoin: miter; stroke-miterlimit: 4; fill: rgb(2,90,221); fill-rule: nonzero; opacity: 1;" vector-effect="non-scaling-stroke"  transform=" translate(-109.13, -27.07)" d="M 113.129 31.92 C 112.60185638616943 31.92118441828673 112.16431738066771 31.51296052615363 112.129 30.987000000000002 L 111.697 24.487000000000002 L 105.381 26.087000000000003 C 105.03367399792748 26.177247985970222 104.66461986840919 26.074467807997063 104.41394253454185 25.817678156779344 C 104.16326520067449 25.560888505561625 104.06940388653013 25.189465876733237 104.16799139268768 24.84441435258504 C 104.26657889884524 24.49936282843684 104.54249767486075 24.233593107549005 104.891 24.148000000000003 L 112.37 22.257000000000005 C 112.65722081141767 22.184288857439764 112.96189765962892 22.242685747901945 113.20187798284516 22.416444630359404 C 113.4418583060614 22.590203512816863 113.59243250444153 22.861433285212474 113.613 23.157000000000004 L 114.125 30.857000000000003 C 114.16156518623599 31.40784932013394 113.74482833317293 31.88412000934887 113.194 31.921000000000003 z" stroke-linecap="round" />
</g>
</g>
</g>
<g transform="matrix(0 0 0 0 0 0)"  >
<g style=""   >
</g>
</g>
<g transform="matrix(0.74 0 0 0.74 540 540)" id="976c1161-b407-4631-b7e0-31f1b1254b1e"  >
<circle style="stroke: rgb(2,90,221); stroke-width: 0; stroke-dasharray: none; stroke-linecap: butt; stroke-dashoffset: 0; stroke-linejoin: miter; stroke-miterlimit: 4; fill: rgb(2,90,221); fill-rule: nonzero; opacity: 1;" vector-effect="non-scaling-stroke"  cx="0" cy="0" r="35" />
</g>
<g transform="matrix(1 0 0 1 540 542)" style="" id="6aa3ad22-710b-4ec1-a212-1456355e6bc4"  >
		<text xml:space="preserve" font-family="Lato" font-size="40" font-style="normal" font-weight="400" style="stroke: none; stroke-width: 1; stroke-dasharray: none; stroke-linecap: butt; stroke-dashoffset: 0; stroke-linejoin: miter; stroke-miterlimit: 4; fill: rgb(255,255,255); fill-rule: nonzero; opacity: 1; white-space: pre;" ><tspan x="-10" y="12.57" >₹</tspan></text>
</g>
<g transform="matrix(0 0 0 0 0 0)"  >
<g style=""   >
</g>
</g>
<g transform="matrix(0 0 0 0 0 0)"  >
<g style=""   >
</g>
</g>
<g transform="matrix(NaN NaN NaN NaN 0 0)"  >
<g style=""   >
</g>
</g>
</svg>